<!DOCTYPE svg PUBLIC "-//W3C//DTD SVG 1.1//EN" "http://www.w3.org/Graphics/SVG/1.1/DTD/svg11.dtd">
<!-- Uploaded to: SVG Repo, www.svgrepo.com, Transformed by: SVG Repo Mixer Tools -->
<svg fill="#ffffff" height="800px" width="800px" version="1.1" id="Layer_1" xmlns="http://www.w3.org/2000/svg" xmlns:xlink="http://www.w3.org/1999/xlink" viewBox="0 0 128 128" xml:space="preserve">
<g id="SVGRepo_bgCarrier" stroke-width="0"/>
<g id="SVGRepo_tracerCarrier" stroke-linecap="round" stroke-linejoin="round"/>
<g id="SVGRepo_iconCarrier"> <path d="M59.6,86.8v26.9c0,0,0.9,7.1-7.9,7.1h-35c-8.9,0-7.9-7.1-7.9-7.1V86.8H59.6z"/> <path d="M43.5,10.6c-1.2-2-3.4-3.3-5.9-3.3l-11.3,0c-4,0-7.2,3.2-7.2,7.2c0,1.4,0.4,2.7,1.1,3.8l0.1,0.1c3.3,4.7,5.3,10.5,5.3,16.7 c0,10.5-5.6,19.7-14,24.8l-0.1,0c-1.6,1-2.7,2.8-2.7,4.9v8.5h50.8V41.9c0,0,0.1-2.9-1.9-6.5L43.5,10.6z"/> <path d="M84,10.6c1.2-2,3.4-3.3,5.9-3.3l11.3,0c4,0,7.2,3.2,7.2,7.2c0,1.4-0.4,2.7-1.1,3.8l-0.1,0.1c-3.3,4.7-5.3,10.5-5.3,16.7 c0,10.5,5.6,19.7,14.1,24.8l0.1,0c1.6,1,2.7,2.8,2.7,4.9v8.5H67.8V41.9c0,0,0-2.9,1.9-6.5L84,10.6z"/> <path d="M118.7,86.8v26.9c0,0,0.9,7.1-7.9,7.1h-35c-8.9,0-7.9-7.1-7.9-7.1V86.8H118.7z"/> <path d="M68.1,82.5c1.3,0,2.4-1.1,2.4-2.4c0-1.3-1.1-2.4-2.4-2.4h-8.1c-1.3,0-2.4,1.1-2.4,2.4c0,1.3,1.1,2.4,2.4,2.4H68.1z"/> </g>
</svg>